<svg version="1.1" xmlns="http://www.w3.org/2000/svg" xmlns:xlink="http://www.w3.org/1999/xlink" width="1754" height="1241"><g fill="none" fill-rule="nonzero" stroke="none" stroke-width="none" stroke-linecap="none" stroke-linejoin="miter" stroke-miterlimit="10" stroke-dasharray="" stroke-dashoffset="0" font-family="none" font-weight="none" font-size="none" text-anchor="none" style="mix-blend-mode: normal"><g><text x="679.5" y="343.5" fill="#000000" stroke="none" stroke-width="1" stroke-linecap="butt" font-family="Montserrat" font-weight="bold" font-size="80" text-anchor="middle"><tspan x="679.5" dy="0">Offline-QR-Code-Generator</tspan></text><path d="M367.5,419.5c0,-6.62742 5.37258,-12 12,-12c6.62742,0 12,5.37258 12,12c0,6.62742 -5.37258,12 -12,12c-6.62742,0 -12,-5.37258 -12,-12z" fill="#000000" stroke="none" stroke-width="1" stroke-linecap="butt"/><path d="M367.5,519.5c0,-6.62742 5.37258,-12 12,-12c6.62742,0 12,5.37258 12,12c0,6.62742 -5.37258,12 -12,12c-6.62742,0 -12,-5.37258 -12,-12z" fill="#000000" stroke="none" stroke-width="1" stroke-linecap="butt"/><path d="M567.5,519.5c0,-6.62742 5.37258,-12 12,-12c6.62742,0 12,5.37258 12,12c0,6.62742 -5.37258,12 -12,12c-6.62742,0 -12,-5.37258 -12,-12z" fill="#000000" stroke="none" stroke-width="1" stroke-linecap="butt"/><path d="M567.5,719.5c0,-6.62742 5.37258,-12 12,-12c6.62742,0 12,5.37258 12,12c0,6.62742 -5.37258,12 -12,12c-6.62742,0 -12,-5.37258 -12,-12z" fill="#000000" stroke="none" stroke-width="1" stroke-linecap="butt"/><path d="M1367.5,719.5c0,-6.62742 5.37258,-12 12,-12c6.62742,0 12,5.37258 12,12c0,6.62742 -5.37258,12 -12,12c-6.62742,0 -12,-5.37258 -12,-12z" fill="#000000" stroke="none" stroke-width="1" stroke-linecap="butt"/><path d="M1367.5,419.5c0,-6.62742 5.37258,-12 12,-12c6.62742,0 12,5.37258 12,12c0,6.62742 -5.37258,12 -12,12c-6.62742,0 -12,-5.37258 -12,-12z" fill="#000000" stroke="none" stroke-width="1" stroke-linecap="butt"/><path d="M367.5,219.5c0,-6.62742 5.37258,-12 12,-12c6.62742,0 12,5.37258 12,12c0,6.62742 -5.37258,12 -12,12c-6.62742,0 -12,-5.37258 -12,-12z" fill="#000000" stroke="none" stroke-width="1" stroke-linecap="butt"/><path d="M1367.5,219.5c0,-6.62742 5.37258,-12 12,-12c6.62742,0 12,5.37258 12,12c0,6.62742 -5.37258,12 -12,12c-6.62742,0 -12,-5.37258 -12,-12z" fill="#000000" stroke="none" stroke-width="1" stroke-linecap="butt"/><path d="M1367.5,419.5c0,-6.62742 5.37258,-12 12,-12c6.62742,0 12,5.37258 12,12c0,6.62742 -5.37258,12 -12,12c-6.62742,0 -12,-5.37258 -12,-12z" fill="#000000" stroke="none" stroke-width="1" stroke-linecap="butt"/><path d="M367.5,419.5c0,-6.62742 5.37258,-12 12,-12c6.62742,0 12,5.37258 12,12c0,6.62742 -5.37258,12 -12,12c-6.62742,0 -12,-5.37258 -12,-12z" fill="#000000" stroke="none" stroke-width="1" stroke-linecap="butt"/><path d="M731.5,759.5v-80" fill="none" stroke="#000000" stroke-width="6" stroke-linecap="round"/><path d="M703.5,739.5v-40" fill="none" stroke="#000000" stroke-width="6" stroke-linecap="round"/><path d="M1379.5,719.5h-648" fill="none" stroke="#000000" stroke-width="6" stroke-linecap="round"/><path d="M703.5,719.5h-124" fill="none" stroke="#000000" stroke-width="6" stroke-linecap="round"/><path d="M579.5,719.5l0,-200" fill="none" stroke="#000000" stroke-width="6" stroke-linecap="round"/><path d="M579.5,519.5h-200" fill="none" stroke="#000000" stroke-width="6" stroke-linecap="round"/><path d="M379.5,519.5l0,-100" fill="none" stroke="#000000" stroke-width="6" stroke-linecap="round"/><path d="M696.5,419.5c0,-22.09139 17.90861,-40 40,-40c22.09139,0 40,17.90861 40,40c0,22.09139 -17.90861,40 -40,40c-22.09139,0 -40,-17.90861 -40,-40z" fill="none" stroke="#000000" stroke-width="6" stroke-linecap="round"/><path d="M696.5,419.5h80" fill="none" stroke="#000000" stroke-width="6" stroke-linecap="round"/><path d="M379.5,419.5h317" fill="none" stroke="#000000" stroke-width="6" stroke-linecap="round"/><path d="M776.5,419.5h603" fill="none" stroke="#000000" stroke-width="6" stroke-linecap="round"/><path d="M1339.5,588.5c0,-22.09139 17.90861,-40 40,-40c22.09139,0 40,17.90861 40,40c0,22.09139 -17.90861,40 -40,40c-22.09139,0 -40,-17.90861 -40,-40z" fill="none" stroke="#000000" stroke-width="6" stroke-linecap="round"/><path d="M1339.5,588.5h80" fill="none" stroke="#000000" stroke-width="6" stroke-linecap="round"/><path d="M1379.5,419.5v129" fill="none" stroke="#000000" stroke-width="6" stroke-linecap="round"/><path d="M1379.5,628.5v91" fill="none" stroke="#000000" stroke-width="6" stroke-linecap="round"/><path d="M742.5,119.5c0,-22.09139 17.90861,-40 40,-40c22.09139,0 40,17.90861 40,40c0,22.09139 -17.90861,40 -40,40c-22.09139,0 -40,-17.90861 -40,-40z" fill="none" stroke="#000000" stroke-width="6" stroke-linecap="round"/><path d="M810.78,147.78l-56.56,-56.56" fill="none" stroke="#000000" stroke-width="6" stroke-linecap="round"/><path d="M810.78,91.22l-56.56,56.56" fill="none" stroke="#000000" stroke-width="6" stroke-linecap="round"/><path d="M379.5,119.5h363" fill="none" stroke="#000000" stroke-width="6" stroke-linecap="round"/><path d="M822.5,119.5h557" fill="none" stroke="#000000" stroke-width="6" stroke-linecap="round"/><path d="M1379.5,119.5v100" fill="none" stroke="#000000" stroke-width="6" stroke-linecap="round"/><path d="M1379.5,219.5l-537,0" fill="none" stroke="#000000" stroke-width="6" stroke-linecap="round"/><path d="M802.5,219.5l-423,0" fill="none" stroke="#000000" stroke-width="6" stroke-linecap="round"/><path d="M802.5,239.5v-40" fill="none" stroke="#000000" stroke-width="6" stroke-linecap="round"/><path d="M842.5,239.5v-40l-40,20z" fill="none" stroke="#000000" stroke-width="6" stroke-linecap="round"/><path d="M379.5,219.5v-100" fill="none" stroke="#000000" stroke-width="6" stroke-linecap="round"/><path d="M1185.5,419.5c0,-6.62742 5.37258,-12 12,-12c6.62742,0 12,5.37258 12,12c0,6.62742 -5.37258,12 -12,12c-6.62742,0 -12,-5.37258 -12,-12z" fill="#000000" stroke="none" stroke-width="1" stroke-linecap="butt"/><path d="M1197.5,419.5v-72h-30" fill="none" stroke="#000000" stroke-width="6" stroke-linecap="round"/><path d="M1143.5,347.5c0,-6.62742 5.37258,-12 12,-12c6.62742,0 12,5.37258 12,12c0,6.62742 -5.37258,12 -12,12c-6.62742,0 -12,-5.37258 -12,-12z" fill="none" stroke="#000000" stroke-width="6" stroke-linecap="round"/><path d="M1282.5,119.5c0,-6.62742 5.37258,-12 12,-12c6.62742,0 12,5.37258 12,12c0,6.62742 -5.37258,12 -12,12c-6.62742,0 -12,-5.37258 -12,-12z" fill="#000000" stroke="none" stroke-width="1" stroke-linecap="butt"/><path d="M1294.5,119.5v-50h-56" fill="none" stroke="#000000" stroke-width="6" stroke-linecap="round"/><path d="M1214.5,69.5c0,-6.62742 5.37258,-12 12,-12c6.62742,0 12,5.37258 12,12c0,6.62742 -5.37258,12 -12,12c-6.62742,0 -12,-5.37258 -12,-12z" fill="none" stroke="#000000" stroke-width="6" stroke-linecap="round"/><path d="M513.5,219.5c0,-6.62742 5.37258,-12 12,-12c6.62742,0 12,5.37258 12,12c0,6.62742 -5.37258,12 -12,12c-6.62742,0 -12,-5.37258 -12,-12z" fill="#000000" stroke="none" stroke-width="1" stroke-linecap="butt"/><path d="M525.5,219.5v55" fill="none" stroke="#000000" stroke-width="6" stroke-linecap="round"/><path d="M513.5,286.5c0,-6.62742 5.37258,-12 12,-12c6.62742,0 12,5.37258 12,12c0,6.62742 -5.37258,12 -12,12c-6.62742,0 -12,-5.37258 -12,-12z" fill="none" stroke="#000000" stroke-width="6" stroke-linecap="round"/><path d="M990.5,719.5c0,-6.62742 5.37258,-12 12,-12c6.62742,0 12,5.37258 12,12c0,6.62742 -5.37258,12 -12,12c-6.62742,0 -12,-5.37258 -12,-12z" fill="#000000" stroke="none" stroke-width="1" stroke-linecap="butt"/><path d="M1002.5,719.5v48h38" fill="none" stroke="#000000" stroke-width="6" stroke-linecap="round"/><path d="M1040.5,767.5c0,-6.62742 5.37258,-12 12,-12c6.62742,0 12,5.37258 12,12c0,6.62742 -5.37258,12 -12,12c-6.62742,0 -12,-5.37258 -12,-12z" fill="none" stroke="#000000" stroke-width="6" stroke-linecap="round"/><path d="M560.5,119.5c0,-6.62742 5.37258,-12 12,-12c6.62742,0 12,5.37258 12,12c0,6.62742 -5.37258,12 -12,12c-6.62742,0 -12,-5.37258 -12,-12z" fill="#000000" stroke="none" stroke-width="1" stroke-linecap="butt"/><path d="M572.5,119.5v-56" fill="none" stroke="#000000" stroke-width="6" stroke-linecap="round"/><path d="M560.5,51.5c0,-6.62742 5.37258,-12 12,-12c6.62742,0 12,5.37258 12,12c0,6.62742 -5.37258,12 -12,12c-6.62742,0 -12,-5.37258 -12,-12z" fill="none" stroke="#000000" stroke-width="6" stroke-linecap="round"/><path d="M1025.5,219.5c0,-6.62742 5.37258,-12 12,-12c6.62742,0 12,5.37258 12,12c0,6.62742 -5.37258,12 -12,12c-6.62742,0 -12,-5.37258 -12,-12z" fill="#000000" stroke="none" stroke-width="1" stroke-linecap="butt"/><path d="M1037.5,219.5v40" fill="none" stroke="#000000" stroke-width="6" stroke-linecap="round"/><path d="M1025.5,271.5c0,-6.62742 5.37258,-12 12,-12c6.62742,0 12,5.37258 12,12c0,6.62742 -5.37258,12 -12,12c-6.62742,0 -12,-5.37258 -12,-12z" fill="none" stroke="#000000" stroke-width="6" stroke-linecap="round"/><path d="M928.5,1119.5c0,-22.09139 17.90861,-40 40,-40c22.09139,0 40,17.90861 40,40c0,22.09139 -17.90861,40 -40,40c-22.09139,0 -40,-17.90861 -40,-40z" fill="none" stroke="#000000" stroke-width="6" stroke-linecap="round"/><path d="M996.78,1147.78l-56.56,-56.56" fill="none" stroke="#000000" stroke-width="6" stroke-linecap="round"/><path d="M996.78,1091.22l-56.56,56.56" fill="none" stroke="#000000" stroke-width="6" stroke-linecap="round"/><path d="M1579.5,1119.5h-571" fill="none" stroke="#000000" stroke-width="6" stroke-linecap="round"/><path d="M928.5,1119.5h-149" fill="none" stroke="#000000" stroke-width="6" stroke-linecap="round"/><path d="M1145.5,1119.5c0,-6.62742 5.37258,-12 12,-12c6.62742,0 12,5.37258 12,12c0,6.62742 -5.37258,12 -12,12c-6.62742,0 -12,-5.37258 -12,-12z" fill="#000000" stroke="none" stroke-width="1" stroke-linecap="butt"/><path d="M1157.5,1119.5v70h46" fill="none" stroke="#000000" stroke-width="6" stroke-linecap="round"/><path d="M1203.5,1189.5c0,-6.62742 5.37258,-12 12,-12c6.62742,0 12,5.37258 12,12c0,6.62742 -5.37258,12 -12,12c-6.62742,0 -12,-5.37258 -12,-12z" fill="none" stroke="#000000" stroke-width="6" stroke-linecap="round"/><path d="M759.5,1063.5v-80h40v80z" fill="none" stroke="#000000" stroke-width="6" stroke-linecap="round"/><path d="M779.5,1119.5v-56" fill="none" stroke="#000000" stroke-width="6" stroke-linecap="round"/><path d="M779.5,983.5v-64" fill="none" stroke="#000000" stroke-width="6" stroke-linecap="round"/><path d="M518.5,919.5l-80,40" fill="none" stroke="#000000" stroke-width="6" stroke-linecap="round"/><path d="M506.5,919.5c0,-6.62742 5.37258,-12 12,-12c6.62742,0 12,5.37258 12,12c0,6.62742 -5.37258,12 -12,12c-6.62742,0 -12,-5.37258 -12,-12z" fill="#000000" stroke="none" stroke-width="1" stroke-linecap="butt"/><path d="M426.5,919.5c0,-6.62742 5.37258,-12 12,-12c6.62742,0 12,5.37258 12,12c0,6.62742 -5.37258,12 -12,12c-6.62742,0 -12,-5.37258 -12,-12z" fill="#000000" stroke="none" stroke-width="1" stroke-linecap="butt"/><path d="M779.5,919.5h-261" fill="none" stroke="#000000" stroke-width="6" stroke-linecap="round"/><path d="M438.5,919.5h-59" fill="none" stroke="#000000" stroke-width="6" stroke-linecap="round"/><path d="M379.5,919.5v-22" fill="none" stroke="#000000" stroke-width="6" stroke-linecap="round"/><path d="M379.5,857.5l0,-138" fill="none" stroke="#000000" stroke-width="6" stroke-linecap="round"/><path d="M359.5,897.5h40" fill="none" stroke="#000000" stroke-width="6" stroke-linecap="round"/><path d="M399.5,857.5h-40l20,40z" fill="none" stroke="#000000" stroke-width="6" stroke-linecap="round"/><path d="M221.5,759.5v-80h14v80z" fill="none" stroke="#000000" stroke-width="6" stroke-linecap="round"/><path d="M252.5,759.5v-80h14v80z" fill="#000000" stroke="#000000" stroke-width="6" stroke-linecap="round"/><path d="M379.5,719.5h-113" fill="none" stroke="#000000" stroke-width="6" stroke-linecap="round"/><path d="M218.5,719.5h-39" fill="none" stroke="#000000" stroke-width="6" stroke-linecap="round"/><path d="M179.5,719.5v-300" fill="none" stroke="#000000" stroke-width="6" stroke-linecap="round"/><path d="M167.5,554.5c0,-6.62742 5.37258,-12 12,-12c6.62742,0 12,5.37258 12,12c0,6.62742 -5.37258,12 -12,12c-6.62742,0 -12,-5.37258 -12,-12z" fill="#000000" stroke="none" stroke-width="1" stroke-linecap="butt"/><path d="M179.5,554.5h-51v-50" fill="none" stroke="#000000" stroke-width="6" stroke-linecap="round"/><path d="M116.5,492.5c0,-6.62742 5.37258,-12 12,-12c6.62742,0 12,5.37258 12,12c0,6.62742 -5.37258,12 -12,12c-6.62742,0 -12,-5.37258 -12,-12z" fill="none" stroke="#000000" stroke-width="6" stroke-linecap="round"/><path d="M179.5,419.5l200,0" fill="none" stroke="#000000" stroke-width="6" stroke-linecap="round"/><path d="M255.5,419.5c0,-6.62742 5.37258,-12 12,-12c6.62742,0 12,5.37258 12,12c0,6.62742 -5.37258,12 -12,12c-6.62742,0 -12,-5.37258 -12,-12z" fill="#000000" stroke="none" stroke-width="1" stroke-linecap="butt"/><path d="M267.5,419.5l0,-61h-21" fill="none" stroke="#000000" stroke-width="6" stroke-linecap="round"/><path d="M222.5,358.5c0,-6.62742 5.37258,-12 12,-12c6.62742,0 12,5.37258 12,12c0,6.62742 -5.37258,12 -12,12c-6.62742,0 -12,-5.37258 -12,-12z" fill="none" stroke="#000000" stroke-width="6" stroke-linecap="round"/><path d="M379.5,419.5v100" fill="none" stroke="#000000" stroke-width="6" stroke-linecap="round"/><path d="M1473.5,419.5l80,-40" fill="none" stroke="#000000" stroke-width="6" stroke-linecap="round"/><path d="M1461.5,419.5c0,-6.62742 5.37258,-12 12,-12c6.62742,0 12,5.37258 12,12c0,6.62742 -5.37258,12 -12,12c-6.62742,0 -12,-5.37258 -12,-12z" fill="#000000" stroke="none" stroke-width="1" stroke-linecap="butt"/><path d="M1541.5,419.5c0,-6.62742 5.37258,-12 12,-12c6.62742,0 12,5.37258 12,12c0,6.62742 -5.37258,12 -12,12c-6.62742,0 -12,-5.37258 -12,-12z" fill="#000000" stroke="none" stroke-width="1" stroke-linecap="butt"/><path d="M1379.5,419.5h94" fill="none" stroke="#000000" stroke-width="6" stroke-linecap="round"/><path d="M1553.5,419.5h26" fill="none" stroke="#000000" stroke-width="6" stroke-linecap="round"/><path d="M1559.5,976.5v-80h40v80z" fill="none" stroke="#000000" stroke-width="6" stroke-linecap="round"/><path d="M1579.5,419.5v700" fill="none" stroke="#000000" stroke-width="6" stroke-linecap="round"/><path d="M1567.5,641.5c0,-6.62742 5.37258,-12 12,-12c6.62742,0 12,5.37258 12,12c0,6.62742 -5.37258,12 -12,12c-6.62742,0 -12,-5.37258 -12,-12z" fill="#000000" stroke="none" stroke-width="1" stroke-linecap="butt"/><path d="M1579.5,641.5h52v52" fill="none" stroke="#000000" stroke-width="6" stroke-linecap="round"/><path d="M1619.5,705.5c0,-6.62742 5.37258,-12 12,-12c6.62742,0 12,5.37258 12,12c0,6.62742 -5.37258,12 -12,12c-6.62742,0 -12,-5.37258 -12,-12z" fill="none" stroke="#000000" stroke-width="6" stroke-linecap="round"/></g></g></svg>